<svg width="160" height="160" viewBox="0 0 160 160" fill="none" xmlns="http://www.w3.org/2000/svg">
<g clip-path="url(#clip0_501_2)">
<mask id="mask0_501_2" style="mask-type:alpha" maskUnits="userSpaceOnUse" x="1" y="0" width="67" height="49">
<path d="M29.8819 5.28179C17.1225 7.73604 7.14158 17.7701 4.70349 30.6032C3.56825 36.5741 2.63873 42.5731 1.91492 48.5925C14.5244 47.2159 30.047 43.5333 43.2508 34.4569C54.2248 26.9129 60.0483 14.0517 67.1568 0.845764C54.6692 1.43315 42.2121 2.91183 29.8819 5.28179Z" fill="white"/>
</mask>
<g mask="url(#mask0_501_2)">
<path fill-rule="evenodd" clip-rule="evenodd" d="M29.8819 5.28179C17.1225 7.73604 7.14158 17.7701 4.70349 30.6032C3.56825 36.5741 2.63873 42.5731 1.91492 48.5925C14.5244 47.2159 30.047 43.5333 43.2508 34.4569C54.2248 26.9129 60.0483 14.0517 67.1568 0.845764C54.6692 1.43315 42.2121 2.91183 29.8819 5.28179Z" fill="url(#paint0_linear_501_2)"/>
</g>
<mask id="mask1_501_2" style="mask-type:alpha" maskUnits="userSpaceOnUse" x="0" y="0" width="145" height="115">
<path d="M79.0095 0.554626C74.3416 0.562288 69.6737 0.697642 65.0083 0.95558C58.1486 13.7095 52.5079 26.1186 41.9073 33.4048C29.1962 42.1415 14.273 45.7194 2.10286 47.0704C-0.716187 69.4293 -0.698409 92.0564 2.15873 114.408C13.7092 98.3567 28.7543 91.2417 39.266 89.8115C75.8984 84.8367 87.4235 60.1027 103.944 33.7368C113.041 19.2156 128.978 13.9163 144.028 12.55C139.891 8.92358 134.801 6.36463 129.168 5.2818C112.94 2.16355 96.4902 0.585273 80.0381 0.554626H79.0095Z" fill="white"/>
</mask>
<g mask="url(#mask1_501_2)">
<path fill-rule="evenodd" clip-rule="evenodd" d="M79.0095 0.554626C74.3416 0.562288 69.6737 0.697642 65.0083 0.95558C58.1486 13.7095 52.5079 26.1186 41.9073 33.4048C29.1962 42.1415 14.273 45.7194 2.10286 47.0704C-0.716187 69.4293 -0.698409 92.0564 2.15873 114.408C13.7092 98.3567 28.7543 91.2417 39.266 89.8115C75.8984 84.8367 87.4235 60.1027 103.944 33.7368C113.041 19.2156 128.978 13.9163 144.028 12.55C139.891 8.92358 134.801 6.36463 129.168 5.2818C112.94 2.16355 96.4902 0.585273 80.0381 0.554626H79.0095Z" fill="url(#paint1_linear_501_2)"/>
</g>
<mask id="mask2_501_2" style="mask-type:alpha" maskUnits="userSpaceOnUse" x="0" y="11" width="160" height="145">
<path d="M103.944 32.4087C87.4235 58.7772 79.5226 77.9821 42.8927 82.9621C31.9822 84.4408 12.7365 85.0078 0.868591 102.034C1.63558 111.55 2.91558 121.032 4.70351 130.443C7.10859 143.113 16.8711 153.052 29.3994 155.665C31.6216 136.738 38.8038 119.758 58.7353 107.732C88.4343 89.8115 100.312 100.762 131.002 91.8035C142.857 88.3431 152.056 82.3288 159.012 76.0157C158.756 60.805 157.199 45.6096 154.344 30.6032C152.864 22.7935 148.589 16.0233 142.593 11.3651C127.972 12.9357 112.752 18.3498 103.944 32.4087Z" fill="white"/>
</mask>
<g mask="url(#mask2_501_2)">
<path fill-rule="evenodd" clip-rule="evenodd" d="M103.944 32.4087C87.4235 58.7772 79.5226 77.9821 42.8927 82.9621C31.9822 84.4408 12.7365 85.0078 0.868591 102.034C1.63558 111.55 2.91558 121.032 4.70351 130.443C7.10859 143.113 16.8711 153.052 29.3994 155.665C31.6216 136.738 38.8038 119.758 58.7353 107.732C88.4343 89.8115 100.312 100.762 131.002 91.8035C142.857 88.3431 152.056 82.3288 159.012 76.0157C158.756 60.805 157.199 45.6096 154.344 30.6032C152.864 22.7935 148.589 16.0233 142.593 11.3651C127.972 12.9357 112.752 18.3498 103.944 32.4087Z" fill="url(#paint2_linear_501_2)"/>
</g>
<mask id="mask3_501_2" style="mask-type:alpha" maskUnits="userSpaceOnUse" x="90" y="119" width="67" height="42">
<path d="M126.024 123.042C102.499 131.687 93.6178 150.435 90.4889 160.262C103.446 159.721 116.373 158.221 129.168 155.762C141.93 153.308 151.909 143.274 154.344 130.443C155.043 126.768 155.665 123.083 156.208 119.39C155.126 119.367 154.024 119.354 152.907 119.354C143.86 119.354 133.801 120.179 126.024 123.042Z" fill="white"/>
</mask>
<g mask="url(#mask3_501_2)">
<path fill-rule="evenodd" clip-rule="evenodd" d="M126.024 123.042C102.499 131.687 93.6178 150.435 90.4889 160.262C103.446 159.721 116.373 158.221 129.168 155.762C141.93 153.308 151.909 143.274 154.344 130.443C155.043 126.768 155.665 123.083 156.208 119.39C155.126 119.367 154.024 119.354 152.907 119.354C143.86 119.354 133.801 120.179 126.024 123.042Z" fill="url(#paint3_linear_501_2)"/>
</g>
<mask id="mask4_501_2" style="mask-type:alpha" maskUnits="userSpaceOnUse" x="27" y="74" width="133" height="87">
<path d="M130.596 90.8152C99.4641 99.9018 87.4159 88.7951 57.2876 106.971C37.1962 119.091 29.8743 136.177 27.5708 155.228C28.3302 155.433 29.0997 155.611 29.8819 155.762C46.1079 158.88 62.5524 160.459 79.0019 160.489H80.0483C84.6273 160.482 89.2064 160.351 93.7803 160.104C96.8127 150.698 105.305 133 127.581 124.809C135.784 121.793 146.644 121.15 155.916 121.323C158.004 107.803 159.05 94.1633 159.05 80.5232C159.05 78.6206 159.03 76.718 158.989 74.8154C151.937 81.2179 142.611 87.3037 130.596 90.8152Z" fill="white"/>
</mask>
<g mask="url(#mask4_501_2)">
<path fill-rule="evenodd" clip-rule="evenodd" d="M130.596 90.8152C99.4641 99.9018 87.4159 88.7951 57.2876 106.971C37.1962 119.091 29.8743 136.177 27.5708 155.228C28.3302 155.433 29.0997 155.611 29.8819 155.762C46.1079 158.88 62.5524 160.459 79.0019 160.489H80.0483C84.6273 160.482 89.2064 160.351 93.7803 160.104C96.8127 150.698 105.305 133 127.581 124.809C135.784 121.793 146.644 121.15 155.916 121.323C158.004 107.803 159.05 94.1633 159.05 80.5232C159.05 78.6206 159.03 76.718 158.989 74.8154C151.937 81.2179 142.611 87.3037 130.596 90.8152Z" fill="url(#paint4_linear_501_2)"/>
</g>
<path d="M21.03 56V31.5H40.35V36.715H27.05V41.125H35.835V46.165H27.05V50.785H40.49V56H21.03ZM43.7529 56V37.485H49.4229V38.675C50.7296 37.6483 52.2696 37.135 54.0429 37.135C55.2096 37.135 56.2596 37.3567 57.1929 37.8C58.1263 38.2433 58.9079 38.8733 59.5379 39.69C60.2846 38.8733 61.1713 38.2433 62.1979 37.8C63.2246 37.3567 64.3446 37.135 65.5579 37.135C66.9579 37.135 68.1946 37.45 69.2679 38.08C70.3413 38.71 71.1813 39.585 71.7879 40.705C72.4179 41.825 72.7329 43.12 72.7329 44.59V56H67.0629V45.36C67.0629 44.3333 66.7829 43.5167 66.2229 42.91C65.6863 42.3033 64.9629 42 64.0529 42C63.4229 42 62.8513 42.1167 62.3379 42.35C61.8246 42.5833 61.3813 42.9333 61.0079 43.4C61.0313 43.5867 61.0429 43.785 61.0429 43.995C61.0663 44.1817 61.0779 44.38 61.0779 44.59V56H55.4079V45.36C55.4079 44.3333 55.1279 43.5167 54.5679 42.91C54.0313 42.3033 53.3079 42 52.3979 42C51.7679 42 51.1963 42.1167 50.6829 42.35C50.1929 42.56 49.7729 42.8867 49.4229 43.33V56H43.7529ZM82.0019 56.315C80.6952 56.315 79.5286 56.07 78.5019 55.58C77.4986 55.09 76.7052 54.4133 76.1219 53.55C75.5619 52.6867 75.2819 51.695 75.2819 50.575C75.2819 48.8017 75.9469 47.4367 77.2769 46.48C78.6302 45.5 80.5086 45.01 82.9119 45.01C84.3586 45.01 85.7586 45.185 87.1119 45.535V44.625C87.1119 43.6917 86.8086 43.0033 86.2019 42.56C85.6186 42.0933 84.7436 41.86 83.5769 41.86C82.8536 41.86 82.0369 41.9767 81.1269 42.21C80.2402 42.4433 79.1902 42.8167 77.9769 43.33L75.9469 39.165C77.4636 38.4883 78.9219 37.9867 80.3219 37.66C81.7452 37.31 83.1686 37.135 84.5919 37.135C87.1586 37.135 89.1536 37.7533 90.5769 38.99C92.0002 40.2033 92.7119 41.9183 92.7119 44.135V56H87.1119V54.88C86.3652 55.3933 85.5719 55.7667 84.7319 56C83.9152 56.21 83.0052 56.315 82.0019 56.315ZM80.6719 50.47C80.6719 51.0533 80.9286 51.5083 81.4419 51.835C81.9552 52.1617 82.6669 52.325 83.5769 52.325C84.2536 52.325 84.8836 52.255 85.4669 52.115C86.0736 51.975 86.6219 51.7533 87.1119 51.45V49.07C86.5752 48.93 86.0269 48.825 85.4669 48.755C84.9069 48.685 84.3352 48.65 83.7519 48.65C82.7719 48.65 82.0136 48.8133 81.4769 49.14C80.9402 49.4433 80.6719 49.8867 80.6719 50.47ZM96.082 56V37.485H101.752V56H96.082ZM98.917 35.77C98.0537 35.77 97.3187 35.4667 96.712 34.86C96.1054 34.2533 95.802 33.5183 95.802 32.655C95.802 31.7917 96.1054 31.0567 96.712 30.45C97.3187 29.8433 98.0537 29.54 98.917 29.54C99.7804 29.54 100.515 29.8433 101.122 30.45C101.729 31.0567 102.032 31.7917 102.032 32.655C102.032 33.5183 101.729 34.2533 101.122 34.86C100.515 35.4667 99.7804 35.77 98.917 35.77ZM105.242 56V31.5L110.912 30.625V56H105.242ZM22.705 76V67.78H19.27V65.5H28.72V67.78H25.285V76H22.705ZM31.8985 76.15C31.0885 76.15 30.3535 75.97 29.6935 75.61C29.0435 75.24 28.5285 74.745 28.1485 74.125C27.7685 73.505 27.5785 72.81 27.5785 72.04C27.5785 71.27 27.7585 70.575 28.1185 69.955C28.4885 69.335 28.9885 68.845 29.6185 68.485C30.2485 68.115 30.9485 67.93 31.7185 67.93C32.4985 67.93 33.1885 68.12 33.7885 68.5C34.3885 68.87 34.8585 69.38 35.1985 70.03C35.5485 70.68 35.7235 71.425 35.7235 72.265V72.865H30.0685C30.1785 73.115 30.3235 73.335 30.5035 73.525C30.6935 73.715 30.9185 73.865 31.1785 73.975C31.4385 74.075 31.7185 74.125 32.0185 74.125C32.3485 74.125 32.6485 74.075 32.9185 73.975C33.1885 73.865 33.4185 73.715 33.6085 73.525L35.2135 74.95C34.7135 75.37 34.1985 75.675 33.6685 75.865C33.1485 76.055 32.5585 76.15 31.8985 76.15ZM30.0235 71.17H33.3385C33.2585 70.91 33.1335 70.69 32.9635 70.51C32.8035 70.32 32.6135 70.175 32.3935 70.075C32.1735 69.965 31.9335 69.91 31.6735 69.91C31.4035 69.91 31.1585 69.96 30.9385 70.06C30.7185 70.16 30.5285 70.305 30.3685 70.495C30.2185 70.675 30.1035 70.9 30.0235 71.17ZM36.8594 76V68.065H39.2894V68.575C39.8494 68.135 40.5094 67.915 41.2694 67.915C41.7694 67.915 42.2194 68.01 42.6194 68.2C43.0194 68.39 43.3544 68.66 43.6244 69.01C43.9444 68.66 44.3244 68.39 44.7644 68.2C45.2044 68.01 45.6844 67.915 46.2044 67.915C46.8044 67.915 47.3344 68.05 47.7944 68.32C48.2544 68.59 48.6144 68.965 48.8744 69.445C49.1444 69.925 49.2794 70.48 49.2794 71.11V76H46.8494V71.44C46.8494 71 46.7294 70.65 46.4894 70.39C46.2594 70.13 45.9494 70 45.5594 70C45.2894 70 45.0444 70.05 44.8244 70.15C44.6044 70.25 44.4144 70.4 44.2544 70.6C44.2644 70.68 44.2694 70.765 44.2694 70.855C44.2794 70.935 44.2844 71.02 44.2844 71.11V76H41.8544V71.44C41.8544 71 41.7344 70.65 41.4944 70.39C41.2644 70.13 40.9544 70 40.5644 70C40.2944 70 40.0494 70.05 39.8294 70.15C39.6194 70.24 39.4394 70.38 39.2894 70.57V76H36.8594ZM50.7168 79.06V68.065H53.1168V68.65C53.7468 68.19 54.4568 67.96 55.2468 67.96C56.0068 67.96 56.6918 68.145 57.3018 68.515C57.9118 68.875 58.3968 69.365 58.7568 69.985C59.1168 70.595 59.2968 71.28 59.2968 72.04C59.2968 72.8 59.1118 73.49 58.7418 74.11C58.3818 74.72 57.8868 75.205 57.2568 75.565C56.6368 75.925 55.9418 76.105 55.1718 76.105C54.8018 76.105 54.4468 76.06 54.1068 75.97C53.7668 75.88 53.4468 75.75 53.1468 75.58V79.06H50.7168ZM54.8268 74.05C55.2268 74.05 55.5818 73.965 55.8918 73.795C56.2018 73.615 56.4468 73.375 56.6268 73.075C56.8168 72.765 56.9118 72.42 56.9118 72.04C56.9118 71.66 56.8168 71.32 56.6268 71.02C56.4468 70.71 56.1968 70.47 55.8768 70.3C55.5668 70.12 55.2168 70.03 54.8268 70.03C54.4868 70.03 54.1768 70.085 53.8968 70.195C53.6168 70.295 53.3668 70.45 53.1468 70.66V73.435C53.3568 73.625 53.6068 73.775 53.8968 73.885C54.1868 73.995 54.4968 74.05 54.8268 74.05ZM60.4434 76V65.5L62.8734 65.125V76H60.4434ZM66.9041 76.135C66.3441 76.135 65.8441 76.03 65.4041 75.82C64.9741 75.61 64.6341 75.32 64.3841 74.95C64.1441 74.58 64.0241 74.155 64.0241 73.675C64.0241 72.915 64.3091 72.33 64.8791 71.92C65.4591 71.5 66.2641 71.29 67.2941 71.29C67.9141 71.29 68.5141 71.365 69.0941 71.515V71.125C69.0941 70.725 68.9641 70.43 68.7041 70.24C68.4541 70.04 68.0791 69.94 67.5791 69.94C67.2691 69.94 66.9191 69.99 66.5291 70.09C66.1491 70.19 65.6991 70.35 65.1791 70.57L64.3091 68.785C64.9591 68.495 65.5841 68.28 66.1841 68.14C66.7941 67.99 67.4041 67.915 68.0141 67.915C69.1141 67.915 69.9691 68.18 70.5791 68.71C71.1891 69.23 71.4941 69.965 71.4941 70.915V76H69.0941V75.52C68.7741 75.74 68.4341 75.9 68.0741 76C67.7241 76.09 67.3341 76.135 66.9041 76.135ZM66.3341 73.63C66.3341 73.88 66.4441 74.075 66.6641 74.215C66.8841 74.355 67.1891 74.425 67.5791 74.425C67.8691 74.425 68.1391 74.395 68.3891 74.335C68.6491 74.275 68.8841 74.18 69.0941 74.05V73.03C68.8641 72.97 68.6291 72.925 68.3891 72.895C68.1491 72.865 67.9041 72.85 67.6541 72.85C67.2341 72.85 66.9091 72.92 66.6791 73.06C66.4491 73.19 66.3341 73.38 66.3341 73.63ZM76.7238 76.105C75.7738 76.105 75.0538 75.895 74.5638 75.475C74.0838 75.045 73.8438 74.415 73.8438 73.585V70.09H72.2388V68.065H73.8438V66.025L76.2738 65.5V68.065H78.4938V70.09H76.2738V73.105C76.2738 73.455 76.3488 73.705 76.4988 73.855C76.6588 73.995 76.9338 74.065 77.3238 74.065C77.5238 74.065 77.7038 74.055 77.8638 74.035C78.0338 74.005 78.2188 73.96 78.4188 73.9V75.865C78.1988 75.935 77.9188 75.99 77.5788 76.03C77.2388 76.08 76.9538 76.105 76.7238 76.105ZM83.3291 76.15C82.5191 76.15 81.7841 75.97 81.1241 75.61C80.4741 75.24 79.9591 74.745 79.5791 74.125C79.1991 73.505 79.0091 72.81 79.0091 72.04C79.0091 71.27 79.1891 70.575 79.5491 69.955C79.9191 69.335 80.4191 68.845 81.0491 68.485C81.6791 68.115 82.3791 67.93 83.1491 67.93C83.9291 67.93 84.6191 68.12 85.2191 68.5C85.8191 68.87 86.2891 69.38 86.6291 70.03C86.9791 70.68 87.1541 71.425 87.1541 72.265V72.865H81.4991C81.6091 73.115 81.7541 73.335 81.9341 73.525C82.1241 73.715 82.3491 73.865 82.6091 73.975C82.8691 74.075 83.1491 74.125 83.4491 74.125C83.7791 74.125 84.0791 74.075 84.3491 73.975C84.6191 73.865 84.8491 73.715 85.0391 73.525L86.6441 74.95C86.1441 75.37 85.6291 75.675 85.0991 75.865C84.5791 76.055 83.9891 76.15 83.3291 76.15ZM81.4541 71.17H84.7691C84.6891 70.91 84.5641 70.69 84.3941 70.51C84.2341 70.32 84.0441 70.175 83.8241 70.075C83.6041 69.965 83.3641 69.91 83.1041 69.91C82.8341 69.91 82.5891 69.96 82.3691 70.06C82.1491 70.16 81.9591 70.305 81.7991 70.495C81.6491 70.675 81.5341 70.9 81.4541 71.17Z" fill="white"/>
<g clip-path="url(#clip1_501_2)">
<path d="M141.993 95.3545L90.3921 125.124C88.3771 126.281 88.6331 129.087 90.6371 129.933L102.471 134.898L134.456 106.71C135.068 106.164 135.936 106.999 135.413 107.634L108.594 140.309V149.271C108.594 151.898 111.767 152.933 113.326 151.03L120.395 142.424L134.267 148.235C135.847 148.903 137.651 147.912 137.94 146.209L145.956 98.1154C146.335 95.8666 143.919 94.2412 141.993 95.3545Z" fill="white"/>
</g>
</g>
<defs>
<linearGradient id="paint0_linear_501_2" x1="61.0013" y1="14.5395" x2="14.3645" y2="30.248" gradientUnits="userSpaceOnUse">
<stop stop-color="#121C28"/>
<stop offset="1" stop-color="#2A2367"/>
</linearGradient>
<linearGradient id="paint1_linear_501_2" x1="114.404" y1="20.2994" x2="39.0881" y2="89.0192" gradientUnits="userSpaceOnUse">
<stop stop-color="#28235B"/>
<stop offset="1" stop-color="#E6007E"/>
</linearGradient>
<linearGradient id="paint2_linear_501_2" x1="147.997" y1="55.3693" x2="21.0256" y2="123.426" gradientUnits="userSpaceOnUse">
<stop stop-color="#FF9500"/>
<stop offset="1" stop-color="#E6007E"/>
</linearGradient>
<linearGradient id="paint3_linear_501_2" x1="154.688" y1="138.523" x2="112.34" y2="156.725" gradientUnits="userSpaceOnUse">
<stop stop-color="#E6332A"/>
<stop offset="1" stop-color="#FF645B"/>
</linearGradient>
<linearGradient id="paint4_linear_501_2" x1="132.879" y1="107.08" x2="84.638" y2="147.806" gradientUnits="userSpaceOnUse">
<stop stop-color="#FF9500"/>
<stop offset="1" stop-color="#FF645B"/>
</linearGradient>
<clipPath id="clip0_501_2">
<rect width="160" height="160" fill="white"/>
</clipPath>
<clipPath id="clip1_501_2">
<rect width="57" height="57" fill="white" transform="translate(89 95)"/>
</clipPath>
</defs>
</svg>
